<?xml version="1.0" standalone="no"?>
<!DOCTYPE svg PUBLIC "-//W3C//DTD SVG 20010904//EN"
 "http://www.w3.org/TR/2001/REC-SVG-20010904/DTD/svg10.dtd">
<svg version="1.0" xmlns="http://www.w3.org/2000/svg"
 width="554.000000pt" height="554.000000pt" viewBox="0 0 554.000000 554.000000"
 preserveAspectRatio="xMidYMid meet">

<g transform="translate(0.000000,554.000000) scale(0.100000,-0.100000)"
fill="#000000" stroke="none">
<path d="M1617 4339 c-98 -23 -193 -100 -240 -194 -13 -27 -102 -231 -197
-452 -95 -222 -175 -403 -178 -403 -2 0 -60 32 -126 70 -173 99 -215 94 -281
-37 -27 -53 -30 -67 -30 -160 0 -98 1 -104 27 -129 18 -18 52 -34 110 -49 l83
-22 5 -794 c3 -449 9 -803 14 -814 26 -56 68 -103 118 -130 l53 -30 225 -3
c144 -3 244 0 277 8 67 14 124 57 160 117 l28 48 5 235 5 235 1087 3 1086 2 4
-227 c3 -214 5 -231 27 -276 29 -59 89 -111 152 -132 40 -14 89 -16 286 -13
265 3 281 7 349 80 74 78 69 13 72 895 l2 792 43 11 c115 30 145 41 167 65 23
25 25 34 25 128 0 93 -3 107 -30 160 -16 32 -42 70 -58 83 -49 41 -85 33 -231
-51 -71 -41 -130 -74 -132 -72 -2 1 -84 194 -184 427 -100 234 -192 443 -205
466 -32 55 -96 111 -164 143 l-56 26 -1130 2 c-637 1 -1146 -3 -1168 -8z
m2133 -210 c119 -57 124 -64 342 -506 109 -221 198 -405 198 -408 0 -3 -686
-5 -1525 -5 -839 0 -1525 3 -1525 8 0 4 48 104 106 222 58 118 143 292 189
386 87 181 127 237 202 281 92 54 58 52 1043 50 l915 -2 55 -26z m-2340 -1280
c180 -41 277 -69 301 -84 97 -62 90 -233 -11 -286 -31 -17 -62 -19 -326 -19
-335 0 -321 -4 -370 96 -67 137 0 354 109 354 18 0 151 -27 297 -61z m3079 36
c73 -62 96 -223 47 -327 -49 -103 -34 -99 -380 -96 -283 3 -303 4 -328 23 -88
66 -91 216 -5 277 34 25 523 146 594 147 31 1 49 -6 72 -24z m-939 -605 c18
-18 20 -33 20 -134 0 -107 -1 -116 -22 -130 -20 -14 -111 -16 -787 -16 -697 0
-766 1 -783 17 -15 14 -18 32 -18 134 0 110 1 119 22 133 20 14 111 16 785 16
750 0 763 0 783 -20z"/>
</g>
</svg>
